<svg xmlns="http://www.w3.org/2000/svg" viewBox="0 0 142.32 32.97"><defs><style>.cls-1{fill:#ca3627;}.cls-2{fill:#536766;}.cls-3{isolation:isolate;}.cls-4{fill:#3b4d4c;}.cls-5{fill:#5f7777;}.cls-6{fill:#ef3d34;}.cls-7{fill:#7d1c1b;}</style></defs><g id="Layer_2" data-name="Layer 2"><g id="Layer_1-2" data-name="Layer 1"><path class="cls-1" d="M37.19,11.52a6,6,0,1,1-5.95,6A6,6,0,0,1,37.19,11.52Zm0,10.94a5,5,0,1,0-5-5A5,5,0,0,0,37.19,22.46Zm0-9.48a4.5,4.5,0,1,1-4.49,4.51A4.52,4.52,0,0,1,37.19,13Zm0,8a3.53,3.53,0,1,0-3.52-3.51A3.53,3.53,0,0,0,37.17,21Z"/><path class="cls-1" d="M45,11.76h1V23.19H45Zm4.08,5.38,5.73,6.05H53.49l-6-6.4v.76l5.32,5.64H51.46l-4-4.25v4.25h-1V11.76h1v3.62l3.47-3.62h1.33l-4.15,4.31.34.36L53,11.76h1.33Z"/><path class="cls-1" d="M61.24,11.52a6,6,0,1,1-6,6A6,6,0,0,1,61.24,11.52Zm0,10.94a5,5,0,1,0-5-5A5,5,0,0,0,61.24,22.46Zm0-9.48a4.5,4.5,0,1,1-4.5,4.51A4.52,4.52,0,0,1,61.24,13Zm0,8a3.53,3.53,0,1,0-3.52-3.51A3.53,3.53,0,0,0,61.22,21Z"/><path class="cls-1" d="M75,21.22a3,3,0,0,0,2.48,1.24,2.82,2.82,0,0,0,2.87-2.77,2.78,2.78,0,0,0-2.88-2.56H76.32v-1h1.12a1.18,1.18,0,0,0,1.26-1.11A1.08,1.08,0,0,0,77.62,14a1.55,1.55,0,0,0-1.19.49l-.92-.39A2.42,2.42,0,0,1,77.62,13a2.05,2.05,0,0,1,2.06,2.07,2.1,2.1,0,0,1-.59,1.46l.46.23a2.68,2.68,0,0,0,.61-1.69,2.55,2.55,0,0,0-2.54-2.56,3,3,0,0,0-2.53,1.34l-.93-.35a3.93,3.93,0,0,1,3.46-2,3.53,3.53,0,0,1,3.52,3.53,3.7,3.7,0,0,1-.83,2.31,3.35,3.35,0,0,1,1,2.33,3.81,3.81,0,0,1-3.85,3.75,4,4,0,0,1-3.31-1.74Zm1.25-.77a1.51,1.51,0,0,0,1.23.55,1.35,1.35,0,0,0,1.41-1.31c0-.62-.61-1.1-1.42-1.1H76.32v-1h1.12a2.25,2.25,0,0,1,2.4,2.08A2.33,2.33,0,0,1,77.45,22a2.45,2.45,0,0,1-2.09-1Z"/><path class="cls-1" d="M85,14.19h-.49v9h-1v-10h4.57a4.38,4.38,0,0,1,4.51,4.27,4.36,4.36,0,0,1-4.51,4.24H85.92v.49h2.14a4.85,4.85,0,0,0,5-4.73,4.87,4.87,0,0,0-5-4.76H83.49v-1h4.57a5.84,5.84,0,0,1,6,5.73,5.82,5.82,0,0,1-6,5.7H85Zm1,0v6.57H88a3.39,3.39,0,0,0,3.54-3.27A3.41,3.41,0,0,0,88,14.19Z"/><path class="cls-2" d="M97.74,14.19h-.49v9h-.48v-9h-.49v9h-.49V13.71h5a1.58,1.58,0,1,1,0,3.16H98.23v.49h2.56a2.07,2.07,0,1,0,0-4.14h-5v-.49h5a2.56,2.56,0,1,1,0,5.11H98.23v.49h2.56a3,3,0,1,0,0-6.08h-5v-.49h5a3.53,3.53,0,1,1,0,7H98.23v4.38h-.49Zm.49,0v2.19h2.56a1.08,1.08,0,0,0,1.1-1.09,1.09,1.09,0,0,0-1.1-1.1Z"/><path class="cls-2" d="M108,14.19h-.49v9H107v-9h-.48v9H106V13.71h5a1.58,1.58,0,1,1,0,3.16h-2.57v.49H111a2.07,2.07,0,0,0,0-4.14h-5v-.49h5a2.56,2.56,0,1,1,0,5.11h-2.57v.49H111a3,3,0,1,0,0-6.08h-5v-.49h5a3.54,3.54,0,0,1,3.53,3.53,3.5,3.5,0,0,1-2.33,3.31l2.49,4.59h-.56l-2.42-4.44a2.63,2.63,0,0,1-.5.06l2.38,4.38H113l-2.39-4.38h-.53l2.37,4.38h-.56l-2.38-4.38h-1.09v4.38H108Zm.48,0v2.19H111a1.08,1.08,0,0,0,1.1-1.09,1.1,1.1,0,0,0-1.1-1.1Z"/><path class="cls-2" d="M116.52,11.76H117V23.19h-.48Zm1,0H118V23.19h-.49Zm1,0H119V23.19h-.49Z"/><path class="cls-2" d="M121.32,11.76h.49V23.19h-.49Zm1,0h.49V23.19h-.49Zm1.46,2.64v8.79h-.48V11.76h.6l5.72,10.43v-.94l-5.12-9.49H125l4.59,8.48V11.76h.49V23.19h-.49l-5.84-10.56v.83l5.34,9.73h-.57Zm6.81-2.64h.49V23.19h-.49Zm1,0H132V23.19h-.48Z"/><path class="cls-2" d="M133.56,11.76h8.76v.49h-8.76Zm0,1h8.76v.49h-8.76Zm5.11,1.46h-.49v9h-.48v-9h-.49v9h-.49v-9h-3.16v-.48h8.76v.48h-3.16v9h-.49Z"/><g class="cls-3"><polygon class="cls-2" points="28.58 8.26 28.53 24.71 14.31 32.98 14.36 16.53 28.58 8.26"/><polygon class="cls-4" points="14.36 16.53 14.31 32.98 0 24.71 0.05 8.26 14.36 16.53"/><polygon class="cls-5" points="28.58 8.26 14.36 16.53 0.05 8.26 14.27 0 28.58 8.26"/></g><g class="cls-3"><polygon class="cls-2" points="8.46 19.84 8.47 13.1 14.31 9.71 14.29 16.45 8.46 19.84"/><polygon class="cls-4" points="14.29 16.45 14.31 9.71 20.18 13.1 20.16 19.84 14.29 16.45"/><polygon class="cls-5" points="8.46 19.84 14.29 16.45 20.16 19.84 14.33 23.23 8.46 19.84"/></g><polygon class="cls-6" points="20.18 13.1 14.31 9.71 8.47 13.1 4.89 11.03 14.29 5.54 23.83 11.03 20.18 13.1"/><polygon class="cls-1" points="14.33 23.23 20.16 19.84 20.18 13.1 23.83 11.03 23.72 22.5 14.29 28.19 14.33 23.23"/><polygon class="cls-7" points="14.33 23.23 8.47 19.84 8.47 13.1 4.89 11.03 4.89 27.5 8.47 29.57 8.47 25.03 14.29 28.19 14.33 23.23"/></g></g></svg>